<?xml version="1.0" encoding="UTF-8" standalone="no"?>
<svg
   xmlns:dc="http://purl.org/dc/elements/1.1/"
   xmlns:cc="http://creativecommons.org/ns#"
   xmlns:rdf="http://www.w3.org/1999/02/22-rdf-syntax-ns#"
   xmlns:svg="http://www.w3.org/2000/svg"
   xmlns="http://www.w3.org/2000/svg"
   id="svg578"
   version="1.1"
   viewBox="0 0 67.733332 67.733331"
   height="256"
   width="256">
  <defs
     id="defs572" />
  <metadata
     id="metadata575">
    <rdf:RDF>
      <cc:Work
         rdf:about="">
        <dc:format>image/svg+xml</dc:format>
        <dc:type
           rdf:resource="http://purl.org/dc/dcmitype/StillImage" />
        <dc:title></dc:title>
      </cc:Work>
    </rdf:RDF>
  </metadata>
  <g
     id="layer1">
    <g
       id="g184"
       transform="matrix(1.2790208,0,0,-1.2790208,19.101711,44.140185)">
      <path
         d="m 0,0 c -0.717,1.012 -1.434,2.023 -2.155,3.032 -0.341,0.476 -0.596,0.981 -0.759,1.32 -0.62,1.301 -0.607,2.629 0.034,3.646 0.642,1.019 1.837,1.604 3.278,1.605 1.352,0 2.652,-0.412 3.818,-1.2 -1.748,4.674 -3.496,9.35 -5.234,14.029 -0.241,0.648 -0.389,1.338 -0.427,1.994 -0.136,2.377 1.101,4.282 3.228,4.973 0.397,0.129 0.817,0.195 1.249,0.195 0.759,0 1.513,-0.203 2.199,-0.563 v 1.202 0.001 0.034 c 0,0.215 -0.11,0.433 -0.327,0.652 -0.217,0.216 -0.434,0.325 -0.652,0.325 h -7.303 c -0.219,0 -0.434,-0.109 -0.651,-0.325 -0.22,-0.219 -0.327,-0.437 -0.327,-0.652 -0.218,-2.479 -1.152,-4.414 -2.803,-5.804 -1.523,-1.349 -3.326,-2.11 -5.413,-2.283 -0.567,-0.174 -0.848,-0.5 -0.848,-0.978 V 21.171 21.17 14.519 c 0,-0.218 0.108,-0.436 0.325,-0.653 0.218,-0.218 0.435,-0.326 0.653,-0.326 3.302,-0.131 6,0.478 8.086,1.826 v -28.887 c 0,-0.218 0.107,-0.435 0.327,-0.653 0.217,-0.218 0.432,-0.326 0.651,-0.326 h 4.263 c -0.003,0.012 -0.005,0.022 -0.008,0.034 h 3.048 c 0.218,0 0.435,0.108 0.652,0.325 0.217,0.218 0.327,0.435 0.327,0.653 v 2.959 3.291 C 3.443,-4.838 1.693,-2.388 0,0"
         style="fill:#8fd349;fill-opacity:1;fill-rule:nonzero;stroke:none"
         id="path186" />
    </g>
    <g
       id="g188"
       transform="matrix(1.2790208,0,0,-1.2790208,29.026656,40.339289)">
      <path
         d="m 0,0 c -2.485,6.65 -4.977,13.299 -7.449,19.953 -0.187,0.503 -0.31,1.051 -0.341,1.584 -0.1,1.749 0.757,3.057 2.252,3.543 1.269,0.413 2.88,-0.226 3.762,-1.531 0.262,-0.389 0.476,-0.822 0.642,-1.262 1.333,-3.531 2.651,-7.069 3.973,-10.604 0.07,-0.19 0.141,-0.379 0.235,-0.63 0.851,2.316 1.896,3.263 3.657,3.261 2.11,-10e-4 3.208,-1.273 3.813,-3.328 0.651,1.916 1.884,2.927 3.783,2.833 1.942,-0.095 2.887,-1.426 3.413,-3.149 0.41,0.52 0.709,1.078 1.163,1.442 1.701,1.362 4.068,0.774 4.908,-1.402 1.52,-3.938 2.934,-7.922 4.199,-11.948 0.649,-2.071 0.454,-4.26 -0.062,-6.393 -0.586,-2.426 -2.013,-4.321 -3.626,-6.153 -1.24,-1.407 -2.85,-2.122 -4.481,-2.863 -4.45,-2.022 -8.905,-2.034 -13.281,0.13 -2.889,1.429 -5.269,3.578 -7.198,6.128 -2.793,3.695 -5.429,7.506 -8.124,11.274 -0.247,0.344 -0.45,0.725 -0.634,1.109 -0.85,1.784 0.054,3.218 2.036,3.221 1.45,0.002 2.708,-0.592 3.744,-1.523 1.067,-0.959 1.994,-2.075 2.978,-3.127 0.19,-0.202 0.361,-0.42 0.54,-0.632 C -0.065,-0.045 -0.032,-0.022 0,0"
         style="fill:#295d80;fill-opacity:1;fill-rule:nonzero;stroke:none"
         id="path190" />
    </g>
  </g>
</svg>
